{
    "asset": {
        "version": "2.0"
    },
    "accessors": [
        {
            "bufferView": 0,
            "componentType": 5125,
            "count": 210753,
            "type": "SCALAR"
        },
        {
            "bufferView": 1,
            "componentType": 5126,
            "count": 35367,
            "type": "VEC3",
            "max": [
                854.2953491210938,
                552.03857421875,
                101.19380187988281
            ],
            "min": [
                0.0,
                0.0,
                0.0
            ]
        }
    ],
    "bufferViews": [
        {
            "buffer": 0,
            "byteOffset": 0,
            "byteLength": 843012,
            "target": 34963
        },
        {
            "buffer": 0,
            "byteOffset": 843012,
            "byteLength": 424404,
            "target": 34962
        }
    ],
    "buffers": [
        {
            "byteLength": 1267416,
            "uri": "0.bin"
        }
    ],
    "materials": [
        {
            "pbrMetallicRoughness": {
                "baseColorFactor": [
                    0.0,
                    1.0,
                    0.0,
                    1.0
                ],
                "metallicFactor": 0.20000000298023224,
                "roughnessFactor": 0.4000000059604645
            },
            "doubleSided": true
        }
    ],
    "meshes": [
        {
            "primitives": [
                {
                    "attributes": {
                        "POSITION": 1
                    },
                    "indices": 0,
                    "material": 0
                }
            ]
        }
    ],
    "nodes": [
        {
            "mesh": 0
        }
    ],
    "scenes": [
        {
            "nodes": [
                0
            ]
        }
    ],
    "scene": 0
}