{
    "asset": {
        "copyright": "Nathan Crews",
        "generator": "LandXML to glTF 2.0 Converter, version 1.0",
        "version": "2.0"
    },
    "accessors": [
        {
            "bufferView": 0,
            "componentType": 5126,
            "count": 18,
            "type": "VEC3",
            "max": [
                0.0,
                46.82992935180664,
                15.240030288696289
            ],
            "min": [
                -76.31546783447266,
                -54.495887756347656,
                15.240030288696289
            ]
        },
        {
            "bufferView": 1,
            "componentType": 5125,
            "count": 34,
            "type": "SCALAR"
        }
    ],
    "bufferViews": [
        {
            "buffer": 0,
            "byteOffset": 0,
            "byteLength": 216,
            "target": 34962
        },
        {
            "buffer": 0,
            "byteOffset": 216,
            "byteLength": 136,
            "target": 34963
        }
    ],
    "buffers": [
        {
            "byteLength": 352,
            "uri": "polyline_Poly_0.bin"
        }
    ],
    "materials": [
        {
            "pbrMetallicRoughness": {
                "baseColorFactor": [
                    0.0,
                    1.0,
                    0.0,
                    1.0
                ],
                "metallicFactor": 0.20000000298023224,
                "roughnessFactor": 0.4000000059604645
            },
            "name": "grass_3",
            "doubleSided": true
        }
    ],
    "meshes": [
        {
            "name": "Parcel 3",
            "primitives": [
                {
                    "attributes": {
                        "POSITION": 0
                    },
                    "indices": 1,
                    "material": 0,
                    "mode": 1
                }
            ]
        }
    ],
    "nodes": [
        {
            "mesh": 0,
            "name": "LandXML Polyline :Parcel 3"
        }
    ],
    "scenes": [
        {
            "nodes": [
                0
            ]
        }
    ],
    "scene": 0
}