{
    "asset": {
        "copyright": "Nathan Crews",
        "generator": "LandXML to glTF 2.0 Converter, version 1.0",
        "version": "2.0"
    },
    "accessors": [
        {
            "bufferView": 0,
            "componentType": 5126,
            "count": 35367,
            "type": "VEC3",
            "max": [
                854.2953491210938,
                552.03857421875,
                101.19380187988281
            ],
            "min": [
                0.0,
                0.0,
                0.0
            ]
        },
        {
            "bufferView": 1,
            "componentType": 5125,
            "count": 200121,
            "type": "SCALAR"
        }
    ],
    "bufferViews": [
        {
            "buffer": 0,
            "byteOffset": 0,
            "byteLength": 424404,
            "target": 34962
        },
        {
            "buffer": 0,
            "byteOffset": 424404,
            "byteLength": 800484,
            "target": 34963
        }
    ],
    "buffers": [
        {
            "byteLength": 1224888,
            "uri": "0.bin"
        }
    ],
    "materials": [
        {
            "pbrMetallicRoughness": {
                "baseColorFactor": [
                    0.0,
                    1.0,
                    0.0,
                    1.0
                ],
                "metallicFactor": 0.20000000298023224,
                "roughnessFactor": 0.4000000059604645
            },
            "doubleSided": true
        }
    ],
    "meshes": [
        {
            "name": "US68MERGE5FROADNET",
            "primitives": [
                {
                    "attributes": {
                        "POSITION": 0
                    },
                    "indices": 1,
                    "material": 0
                }
            ]
        }
    ],
    "nodes": [
        {
            "mesh": 0,
            "name": "LandXML Surface"
        }
    ],
    "scenes": [
        {
            "nodes": [
                0
            ]
        }
    ],
    "scene": 0
}